# xmcd CD database file
#
# Track frame offsets:
#	151
#	16544
#	33925
#	46904
#	62625
#	80345
#	90836
#	103559
#	124250
#	143745
#	158953
#	169377
#	183798
#	206276
#	220010
#	240542
#	255068
#	269929
#	293262
#	310003
#
# Disc length: 4429 seconds
#
# Revision: 0
# Processed by: cddbd v1.5.2PL0 Copyright (c) Steve Scherf et al.
# Submitted via: CDex 1.70beta2
#
DISCID=f8114b14
DTITLE=Жанна Агузарова - Все хиты
DYEAR=1998
DGENRE=Jazz
TTITLE0=Верю Я (remix)
TTITLE1=Ты, только ты
TTITLE2=Черный кот
TTITLE3=Желтые ботинки
TTITLE4=Старый отель
TTITLE5=Ленинградский рок-н-ролл
TTITLE6=Будь со мной
TTITLE7=Один поцелуй моряка
TTITLE8=В городе моём
TTITLE9=В чем дело
TTITLE10=А снег идет
TTITLE11=Чудесная страна
TTITLE12=Счастливая любовь
TTITLE13=Верю я
TTITLE14=Мужчины в этой жизни
TTITLE15=Зимушка
TTITLE16=Звезда
TTITLE17=Пиранья
TTITLE18=Прогулка
TTITLE19=Вернись в Соренто
EXTD=YEAR: 1998
EXTT0=
EXTT1=
EXTT2=
EXTT3=
EXTT4=
EXTT5=
EXTT6=
EXTT7=
EXTT8=
EXTT9=
EXTT10=
EXTT11=
EXTT12=
EXTT13=
EXTT14=
EXTT15=
EXTT16=
EXTT17=
EXTT18=
EXTT19=
PLAYORDER=
